<svg width="48" height="48" viewBox="0 0 48 48" fill="none" xmlns="http://www.w3.org/2000/svg">
<path opacity="0.4" d="M23.9805 4.5H24C30.6269 4.5 38.0573 8.32131 40.1689 16.7188L40.2646 17.1221C42.4809 26.8981 36.5117 35.2716 30.8467 40.7188L30.8438 40.7227C28.9375 42.5744 26.4699 43.5 24 43.5C21.5311 43.5 19.062 42.575 17.1338 40.7197L17.1328 40.7188C11.4684 35.272 5.49805 26.8772 7.71484 17.1006C9.68696 8.42526 17.2661 4.5 23.9805 4.5Z" fill="#FB6514" stroke="#FB6514" stroke-width="2"/>
<path d="M24 15.3203C26.927 15.3203 29.2997 17.6931 29.2998 20.6201C29.2998 23.5472 26.9271 25.9199 24 25.9199C21.073 25.9198 18.7002 23.5472 18.7002 20.6201C18.7003 17.6932 21.073 15.3204 24 15.3203Z" fill="#FB6514" stroke="#FB6514" stroke-width="2"/>
</svg>
