<svg width="48" height="48" viewBox="0 0 48 48" fill="none" xmlns="http://www.w3.org/2000/svg">
<path opacity="0.4" d="M11.1797 5C11.5997 5 12.0108 5.09064 12.3672 5.26172L12.3809 5.26758C12.7521 5.43894 13.0674 5.68788 13.3174 6.04883L13.3242 6.05859L17.9648 12.5986L17.9688 12.6045C18.2924 13.0541 18.5098 13.4456 18.6543 13.7988L18.6572 13.8066L18.6611 13.8135C18.8021 14.1423 18.8603 14.4274 18.8604 14.6396C18.8604 14.9183 18.7803 15.2207 18.5859 15.54L18.5771 15.5537L18.5693 15.5684C18.3652 15.9293 18.0476 16.3381 17.6133 16.7725L17.6064 16.7793L17.5996 16.7871L16.0928 18.3525C15.6698 18.7755 15.4805 19.2978 15.4805 19.8604C15.4805 20.1149 15.5139 20.3369 15.5703 20.5625L15.584 20.6182L15.6035 20.6709C15.6423 20.7742 15.6808 20.8652 15.7061 20.9248C15.7346 20.9922 15.745 21.0184 15.751 21.0361L15.7793 21.1211L15.8223 21.1992C16.2295 21.9458 16.8993 22.865 17.7969 23.9258L17.8037 23.9346C18.7139 24.9863 19.6882 26.0624 20.7461 27.1406L20.7549 27.1484L20.7627 27.1572C21.2139 27.5959 21.6694 28.0361 22.126 28.459L17.0068 33.5781C16.5452 33.1514 16.0906 32.7166 15.6465 32.2725C13.8756 30.484 12.2567 28.6219 10.7891 26.6865L10.168 25.8516C8.76527 23.9009 7.61136 21.9616 6.72461 20.0479L6.36035 19.2295C5.44319 17.0505 5.00001 15.0033 5 13.0801C5 11.8387 5.21891 10.6658 5.64844 9.5918L5.65039 9.58594C6.07322 8.51129 6.74646 7.51272 7.70605 6.60742L7.71387 6.60059L7.72168 6.59277C8.85063 5.48147 10.009 5.00009 11.1797 5Z" fill="#FB6514" stroke="#FB6514" stroke-width="2"/>
<path d="M33.2803 29.0801C33.5136 29.0801 33.785 29.1282 34.1211 29.2656C34.3882 29.3749 34.6791 29.5266 35.0029 29.7285L35.3379 29.9473L41.9414 34.6357L41.9512 34.6426C42.3339 34.9076 42.5593 35.1843 42.6953 35.4834C42.8558 35.8875 42.9404 36.2572 42.9404 36.6602C42.9404 37.1025 42.8606 37.5687 42.6982 38.0234C42.6388 38.1819 42.5972 38.29 42.5459 38.3926L42.541 38.4033L42.5361 38.4131C42.2359 39.0488 41.8497 39.6453 41.3398 40.208C40.4802 41.1554 39.5558 41.8249 38.5352 42.2637L38.3633 42.334C37.3034 42.7651 36.1515 43 34.9004 43C33.0186 43 30.972 42.5573 28.7725 41.6201C26.827 40.7912 24.8728 39.7068 22.9238 38.3633L22.0889 37.7715C21.6127 37.4174 21.1477 37.0695 20.6953 36.7178L25.8516 31.5615C26.1732 31.7754 26.4753 31.9585 26.7559 32.1055L26.8018 32.1299L26.8486 32.1484C26.8721 32.1578 26.9055 32.1722 26.9688 32.2012C27.0252 32.227 27.1027 32.2629 27.1865 32.2988L27.207 32.3086L27.2295 32.3164C27.5354 32.4311 27.8228 32.46 28.0801 32.46C28.697 32.46 29.206 32.2264 29.6025 31.832L31.123 30.332L31.127 30.3271C31.5865 29.8676 31.9858 29.5628 32.3232 29.3867L32.3516 29.3711L32.3799 29.3545C32.7028 29.1579 32.9853 29.0801 33.2803 29.0801Z" fill="#FB6514" stroke="#FB6514" stroke-width="2"/>
</svg>
