<svg width="48" height="48" viewBox="0 0 48 48" fill="none" xmlns="http://www.w3.org/2000/svg">
<path opacity="0.4" d="M14 8H34C36.8465 8 39.066 8.71163 40.5693 10.1074C42.0593 11.4909 43 13.6906 43 17V31C43 34.3094 42.0593 36.5091 40.5693 37.8926C39.066 39.2884 36.8465 40 34 40H14C11.1535 40 8.93401 39.2884 7.43066 37.8926C5.94073 36.5091 5 34.3094 5 31V17C5 13.6906 5.94073 11.4909 7.43066 10.1074C8.93401 8.71163 11.1535 8 14 8Z" fill="#FB6514" stroke="#FB6514" stroke-width="2"/>
<path d="M33.6904 17.5957C33.9055 17.4212 34.2148 17.4693 34.3623 17.6641L34.373 17.6777L34.3838 17.6904C34.5585 17.9055 34.5102 18.2157 34.3154 18.3633L34.3057 18.3701L34.2959 18.3789L28.0352 23.3789L28.0283 23.3838L28.0215 23.3896C26.9492 24.2776 25.4865 24.7401 24 24.7402C22.5151 24.7402 21.0472 24.2785 19.9512 23.3848L19.9434 23.3789L13.6895 18.3838H13.6904C13.4573 18.1943 13.4414 17.8803 13.5957 17.6904C13.7851 17.4574 14.0992 17.4415 14.2891 17.5957L14.2959 17.6016L20.5557 22.6016V22.6006C21.5247 23.3776 22.7819 23.7353 23.9893 23.7354C25.1966 23.7354 26.4538 23.3775 27.4229 22.6006L27.4238 22.6016L33.6836 17.6016L33.6904 17.5957Z" fill="#FB6514" stroke="#FB6514" stroke-width="2"/>
</svg>
