<svg width="48" height="48" viewBox="0 0 48 48" fill="none" xmlns="http://www.w3.org/2000/svg">
<path opacity="0.4" d="M8.03516 34.2246C9.60166 34.6176 11.1845 34.9463 12.7588 35.2246C13.0451 36.8059 13.3697 38.3857 13.7598 39.9521C11.4683 38.4826 9.51238 36.522 8.03516 34.2246Z" fill="#FB6514" stroke="#FB6514" stroke-width="2"/>
<path opacity="0.4" d="M39.9785 34.2227C38.4958 36.5311 36.5165 38.4999 34.1973 39.9893C34.6162 38.4133 34.9799 36.8248 35.2646 35.2246C36.8485 34.9457 38.4199 34.6162 39.9785 34.2227Z" fill="#FB6514" stroke="#FB6514" stroke-width="2"/>
<path opacity="0.4" d="M34.2139 8.0127C36.5373 9.50205 38.5111 11.4786 39.998 13.8037C38.4339 13.3893 36.858 13.0311 35.2656 12.7393C34.9849 11.1505 34.6315 9.57207 34.2139 8.0127Z" fill="#FB6514" stroke="#FB6514" stroke-width="2"/>
<path opacity="0.4" d="M15.3 6.18012C14.58 8.62012 14.06 11.1001 13.64 13.6201C11.06 14.0201 8.49996 14.6601 5.95996 15.4201C7.89996 11.4001 11.12 8.10012 15.1 6.12012C15.16 6.12012 15.24 6.18012 15.3 6.18012Z" fill="#FB6514"/>
<path d="M30.9795 13.18C26.3395 12.66 21.6595 12.66 17.0195 13.18C17.5195 10.44 18.1595 7.7 19.0595 5.06C19.0995 4.9 19.0795 4.78 19.0995 4.62C20.6795 4.24 22.2995 4 23.9995 4C25.6795 4 27.3195 4.24 28.8795 4.62C28.8995 4.78 28.8995 4.9 28.9395 5.06C29.8395 7.72 30.4795 10.44 30.9795 13.18Z" fill="#FB6514"/>
<path d="M13.18 30.9795C10.42 30.4795 7.7 29.8395 5.06 28.9395C4.9 28.8995 4.78 28.9195 4.62 28.8995C4.24 27.3195 4 25.6995 4 23.9995C4 22.3195 4.24 20.6795 4.62 19.1195C4.78 19.0995 4.9 19.0995 5.06 19.0595C7.72 18.1795 10.42 17.5195 13.18 17.0195C12.68 21.6595 12.68 26.3395 13.18 30.9795Z" fill="#FB6514"/>
<path d="M44.0003 23.9995C44.0003 25.6995 43.7603 27.3195 43.3803 28.8995C43.2203 28.9195 43.1003 28.8995 42.9403 28.9395C40.2803 29.8195 37.5603 30.4795 34.8203 30.9795C35.3403 26.3395 35.3403 21.6595 34.8203 17.0195C37.5603 17.5195 40.3003 18.1595 42.9403 19.0595C43.1003 19.0995 43.2203 19.1195 43.3803 19.1195C43.7603 20.6995 44.0003 22.3195 44.0003 23.9995Z" fill="#FB6514"/>
<path d="M30.9795 34.8203C30.4795 37.5803 29.8395 40.3003 28.9395 42.9403C28.8995 43.1003 28.8995 43.2203 28.8795 43.3803C27.3195 43.7603 25.6795 44.0003 23.9995 44.0003C22.2995 44.0003 20.6795 43.7603 19.0995 43.3803C19.0795 43.2203 19.0995 43.1003 19.0595 42.9403C18.1795 40.2803 17.5195 37.5803 17.0195 34.8203C19.3395 35.0803 21.6595 35.2603 23.9995 35.2603C26.3395 35.2603 28.6795 35.0803 30.9795 34.8203Z" fill="#FB6514"/>
<path d="M31.5267 31.5267C26.5245 32.1578 21.4755 32.1578 16.4733 31.5267C15.8422 26.5245 15.8422 21.4755 16.4733 16.4733C21.4755 15.8422 26.5245 15.8422 31.5267 16.4733C32.1578 21.4755 32.1578 26.5245 31.5267 31.5267Z" fill="#FB6514"/>
</svg>
